<svg xmlns="http://www.w3.org/2000/svg" width="20" height="20" viewBox="0 0 20 20"><defs><style>.a{fill:#f2c711;}.a,.b,.c,.d,.e{fill-rule:evenodd;}.b{fill:#0390bf;}.c{fill:red;}.d{fill:#008837;}.e{fill:#fff;}</style></defs><g transform="translate(0)"><path class="a" d="M468.066,784.028a3.232,3.232,0,0,1,2.578-1.109H474.5v16.79a3.394,3.394,0,0,1-3.178,3.191h-3.973v-1.3a3.267,3.267,0,0,1-2.461,1.284h-3.954V801.6a3.267,3.267,0,0,1-2.461,1.284H454.5V786.168a3.139,3.139,0,0,1,3.295-3.268h3.857v1.109a3.232,3.232,0,0,1,2.577-1.109h3.857v1.109Z" transform="translate(-454.5 -782.9)"/><path class="b" d="M458.119,805.241h3.256a2.589,2.589,0,0,0,2.461-2.471V786.7h-3.159a2.415,2.415,0,0,0-2.577,2.549v15.992Z" transform="translate(-457.402 -785.961)"/><path class="c" d="M491.3,805.241h3.256a2.589,2.589,0,0,0,2.461-2.471V786.7h-3.14a2.414,2.414,0,0,0-2.577,2.549Z" transform="translate(-484.168 -785.961)"/><path class="d" d="M524.5,805.241h3.256a2.589,2.589,0,0,0,2.461-2.471V786.7h-3.14a2.414,2.414,0,0,0-2.577,2.549Z" transform="translate(-510.934 -785.961)"/><path class="e" d="M459.091,826.21H458.2a2.769,2.769,0,0,0,2.752,1.79c1.318,0,2.849-.681,2.849-1.965V823.7h-2.035v2.335a1.223,1.223,0,0,1-1.279,1.226,1.377,1.377,0,0,1-1.4-1.031Z" transform="translate(-457.483 -815.762)"/><path class="e" d="M530.862,826.677a1.01,1.01,0,0,1-1.066.973h-4.5V823.7h4.5a2.14,2.14,0,0,0,1.066,2.977Zm-3.857-1.187h1.4a.681.681,0,0,0,0-1.362h-1.4Zm1.434,1.712a.681.681,0,0,0,0-1.362h-1.434V827.2Z" transform="translate(-511.579 -815.762)"/><path class="e" d="M497.647,826.969v.681h-3.43a1.975,1.975,0,0,1,0-3.949h3.43v.72a11.385,11.385,0,0,0-2-.292,1.547,1.547,0,0,0,0,3.093A10.612,10.612,0,0,0,497.647,826.969Z" transform="translate(-484.934 -815.762)"/></g></svg>