<svg xmlns="http://www.w3.org/2000/svg" width="28.329" height="20" viewBox="0 0 28.329 20"><defs><style>.a{fill:#fff;}.a,.b{fill-rule:evenodd;}.b,.d{fill:#0c3387;}.c{fill:#f90;}</style></defs><g transform="translate(1.262 5.998)"><path class="a" d="M13.2,686.5Z" transform="translate(-13.2 -676.803)"/><path class="b" d="M67.9,639l1.262-7.8h2.005L69.905,639Z" transform="translate(-58.445 -631.062)"/><path class="b" d="M92.832,630.728a4.96,4.96,0,0,0-1.8-.328c-1.988,0-3.388,1.054-3.405,2.558-.017,1.123,1,1.746,1.763,2.126s1.054.622,1.037.968-.622.761-1.21.761a4.01,4.01,0,0,1-1.884-.415l-.259-.121-.277,1.746a5.712,5.712,0,0,0,2.247.415c2.109,0,3.491-1.054,3.491-2.662.017-.882-.519-1.556-1.677-2.109-.709-.363-1.141-.6-1.123-.968s.363-.657,1.141-.657a3.388,3.388,0,0,1,1.5.294l.173.086.277-1.677Z" transform="translate(-74.079 -630.4)"/><path class="b" d="M124.783,631.3h-1.556a.993.993,0,0,0-1.054.64l-2.973,7.138h2.109l.415-1.175H124.3l.242,1.175h1.884Zm-2.472,5.013.8-2.178c-.017.017.156-.449.259-.743l.138.674.467,2.247Z" transform="translate(-100.878 -631.144)"/><path class="b" d="M24.452,631.217l-1.988,5.306-.207-1.072-.709-3.6a.837.837,0,0,0-.9-.657H17.4v.138a7.969,7.969,0,0,1,2.143.881l-.069-.035,1.8,6.793h2.143l3.163-7.778Zm-2.333,3.906Z" transform="translate(-16.674 -631.062)"/></g><rect class="c" width="28.329" height="4.703" transform="translate(0 15.297)"/><rect class="d" width="28.329" height="4.703"/></svg>