<svg xmlns="http://www.w3.org/2000/svg" width="105" height="30" viewBox="0 0 105 30"><defs><style>.a{fill:#43a729;}.b{fill:#fff;}.c{fill:#fdfefd;}.d{fill:#fcfdfa;}.e{fill:#449a25;}</style></defs><path class="a" d="M570.4,6.041a14.99,14.99,0,0,1,3.44,29.591c-1.106.286-78.38.368-78.421.368A15,15,0,1,1,495.5,6Z" transform="translate(-480.45 -6)"/><path class="b" d="M560.331,30.532c0,2.374-.082,4.748.041,7.08.041,1.31-.655,1.351-1.6,1.351s-1.6-.164-1.556-1.432c.082-3.724,0-7.449.041-11.132,0-.573-.41-1.555.45-1.637s2.129-.532,2.989.7c1.679,2.415,3.481,4.707,5.242,7.08l.655.778c0-2.578.082-4.829-.041-7.08-.041-1.269.369-1.6,1.6-1.637s1.556.532,1.556,1.678c-.041,3.6,0,7.244-.041,10.887,0,.614.451,1.6-.573,1.719s-2.048.409-2.826-.778c-1.638-2.374-3.4-4.666-5.119-7C560.9,30.9,560.863,30.532,560.331,30.532Z" transform="translate(-525.748 -16.984)"/><path class="b" d="M593.341,31.9c0-2.005.041-4.011,0-6.057,0-.819.2-1.146,1.065-1.146q3.726.082,7.412,0c1.392-.041.942.941.983,1.637s.328,1.555-.942,1.514-3.03.041-4.546-.041-.86.655-.86,1.269-.2,1.31.86,1.228,2.948.041,4.382-.041,1.065.9,1.106,1.678.123,1.555-1.106,1.473-2.826.041-4.259-.041-.983.614-.983,1.31-.041,1.228.983,1.187,2.826.041,4.259-.041,1.269.491,1.147,1.351.491,1.883-1.024,1.883h-7.494c-.778,0-1.024-.327-1.024-1.105C593.382,35.912,593.341,33.907,593.341,31.9Z" transform="translate(-547.087 -17.045)"/><path class="b" d="M629.787,31.711c0-1.924.041-3.847,0-5.771-.041-.9.287-1.187,1.188-1.146s2.662,0,3.972.041a5.363,5.363,0,0,1,5.324,5.362,5.445,5.445,0,0,1-5.16,5.4h-.123c-2.048.082-2.129.082-2.048,2.087.082,1.392-.614,1.432-1.679,1.432s-1.556-.286-1.474-1.473C629.828,35.64,629.787,33.676,629.787,31.711Z" transform="translate(-568.627 -17.1)"/><path class="c" d="M663.71,35.627a1.437,1.437,0,0,0-1.351-1.432,5.081,5.081,0,0,0-2.457.082c-1.433.45-1.638-.409-1.843-1.432s.082-.941.7-1.105a11.391,11.391,0,0,1,3.972-.246,3.938,3.938,0,0,1,3.6,3.561c.246,2.005.082,4.666.123,7,0,.655-.41.859-.983.859-1.679,0-3.4.082-5.078-.041a3.643,3.643,0,0,1-3.4-3.806,3.767,3.767,0,0,1,3.727-3.52Z" transform="translate(-584.695 -21.016)"/><path class="b" d="M687.558,37.258c.737-1.719,1.351-3.233,2.007-4.707.328-.737,2.7-1.228,3.235-.737s.082.573-.041.859L687.517,45.2c-.287.655-2.867,1.146-3.276.614a.778.778,0,0,1-.041-.532,1.309,1.309,0,0,1,.2-.491c1.638-2.456,1.269-4.829-.041-7.285-.737-1.392-1.188-2.947-1.843-4.42s-.328-1.351.86-1.432A2.249,2.249,0,0,1,686,33.37a40.144,40.144,0,0,0,1.556,3.888Z" transform="translate(-599.575 -21.132)"/><path class="c" d="M515.624,31.682c0-1.883.082-3.765-.041-5.648s.737-1.351,1.72-1.392,1.556.2,1.515,1.432c-.082,2.824,0,5.689-.041,8.513,0,.859.2,1.228,1.147,1.146s2.744.041,4.136-.041,1.147.737,1.147,1.514.287,1.719-1.106,1.678c-2.416-.041-4.873-.041-7.289,0-.9,0-1.188-.368-1.188-1.228Z" transform="translate(-501.189 -16.989)"/><path class="d" d="M543.838,31.771c0-1.924.082-3.847-.041-5.771-.041-1.228.532-1.351,1.515-1.31s1.761-.246,1.72,1.228q-.082,5.894,0,11.828c.041,1.392-.819,1.228-1.72,1.269s-1.556-.123-1.515-1.31C543.879,35.741,543.838,33.777,543.838,31.771Z" transform="translate(-517.855 -17.037)"/><path class="e" d="M638.406,32.279c1.269-.041,2.252.286,2.7,1.392A2.127,2.127,0,0,1,640.74,36c-.86.982-2.089.819-3.194.778s-.491-.45-.491-.819a21.066,21.066,0,0,0,0-2.333Q636.87,31.85,638.406,32.279Z" transform="translate(-572.823 -21.474)"/><path class="e" d="M665.646,50.12c-.737-.123-2.007.368-2.048-.982s1.269-.941,2.088-1.064h.819c.819-.082,1.228.082,1.228,1.064s-.409,1.064-1.147.982Z" transform="translate(-588.597 -30.843)"/></svg>