<svg xmlns="http://www.w3.org/2000/svg" width="33.373" height="20" viewBox="0 0 33.373 20"><defs><style>.a{fill:#fe000c;}.a,.b,.c,.d{fill-rule:evenodd;}.b{fill:#ffa814;}.c{fill:#091858;}.d{fill:#fff;}</style></defs><path class="a" d="M228.16,613.98a9.98,9.98,0,1,1-9.98-9.98A9.98,9.98,0,0,1,228.16,613.98Z" transform="translate(-208.2 -603.96)"/><path class="b" d="M285.538,603.86a9.939,9.939,0,0,0-6.694,2.581,10.184,10.184,0,0,0-1.008,1.048h2.016a10.148,10.148,0,0,1,.766,1.048H277.07a10.036,10.036,0,0,0-.585,1.048h4.677a9.875,9.875,0,0,1,.423,1.048h-5.5a9.9,9.9,0,0,0-.282,1.048h6.109a10.04,10.04,0,0,1-.282,5.282h-5.544a10.021,10.021,0,0,0,.423,1.048h4.677a9.929,9.929,0,0,1-.585,1.048H277.07a10.021,10.021,0,0,0,.766,1.048h2.016a10.059,10.059,0,0,1-1.008,1.048,9.98,9.98,0,1,0,6.694-17.359Z" transform="translate(-262.171 -603.8)"/><path class="b" d="M367,679.823a.323.323,0,1,1,.323.323A.323.323,0,0,1,367,679.823Zm.323.242a.242.242,0,1,0-.242-.242A.242.242,0,0,0,367.323,680.065Zm-.04-.1h-.06v-.282h.2a.1.1,0,0,1,0,.161l.06.121H367.4l-.04-.121h-.04v.121Zm0-.161h.081v-.04h-.1v.081Z" transform="translate(-334.984 -664.238)"/><path class="c" d="M237.338,649.579H237.1c-.6,0-.927.2-.927.625a.383.383,0,0,0,.383.423c.444,0,.766-.423.786-1.028Zm.786,1.835h-.907v-.423a1.351,1.351,0,0,1-1.129.5,1.017,1.017,0,0,1-.988-1.129c0-1.008.706-1.593,1.9-1.593l.444.04a1.008,1.008,0,0,0,.04-.262c0-.262-.181-.383-.685-.383a3.608,3.608,0,0,0-1.149.181l.141-.927a4.316,4.316,0,0,1,1.29-.222c.927,0,1.431.423,1.411,1.21a5.241,5.241,0,0,1-.081.806c-.1.6-.3,1.875-.323,2.177Z" transform="translate(-229.677 -638.45)"/><path class="c" d="M215.735,648.06h-1.069l.6-3.891L213.9,648.06h-.746l-.1-3.871-.645,3.871H211.4l.847-5.06H213.8l.1,2.823.948-2.823h1.734l-.847,5.06Z" transform="translate(-210.755 -635.097)"/><path class="c" d="M322.018,649.579h-.242c-.6,0-.927.2-.927.625a.383.383,0,0,0,.383.423c.444,0,.766-.423.786-1.028Zm.786,1.835h-.887v-.423a1.351,1.351,0,0,1-1.129.5,1.017,1.017,0,0,1-.988-1.129c0-1.008.706-1.593,1.9-1.593l.444.04a1.007,1.007,0,0,0,.04-.262c0-.262-.181-.383-.685-.383a3.629,3.629,0,0,0-1.149.181l.141-.927a4.316,4.316,0,0,1,1.29-.222c.927,0,1.431.423,1.431,1.21a5.261,5.261,0,0,1-.081.806c-.1.6-.3,1.875-.323,2.177Z" transform="translate(-297.3 -638.45)"/><path class="c" d="M267.433,649.257a2.458,2.458,0,0,1-.786.141.793.793,0,0,1-.847-.907,9.572,9.572,0,0,1,.141-1.089l.464-2.8h1.069l-.121.625H268l-.141.988h-.645c-.121.786-.3,1.754-.3,1.9a.327.327,0,0,0,.363.3l.282-.04-.141.907Z" transform="translate(-254.187 -636.374)"/><path class="c" d="M278.644,651.313a3.648,3.648,0,0,1-1.109.161,1.632,1.632,0,0,1-1.835-1.835c0-1.21.806-2.44,1.875-2.44s1.452.585,1.452,1.492a4.375,4.375,0,0,1-.141,1.008h-2.117c-.081.6.3.847.927.847a2.561,2.561,0,0,0,1.109-.262l-.181,1.028Zm-.6-2.44c0-.081.121-.726-.5-.726s-.585.262-.685.726Z" transform="translate(-262.091 -638.45)"/><path class="c" d="M251.7,648.591a1.2,1.2,0,0,0,.827,1.149c.565.262.5.262.5.464s-.2.363-.625.363a3.043,3.043,0,0,1-.968-.161l-.141.948a5.021,5.021,0,0,0,1.129.121c1.149,0,1.673-.444,1.673-1.371a1.14,1.14,0,0,0-.766-1.149c-.544-.262-.5-.262-.5-.444s.181-.343.524-.343l.786.06.161-.948a7.266,7.266,0,0,0-.948-.081c-1.21,0-1.633.625-1.633,1.391Z" transform="translate(-242.61 -638.45)"/><path class="c" d="M297.159,642.83a2.056,2.056,0,0,1,.968.282l.181-1.089a3.3,3.3,0,0,0-1.19-.423,2.158,2.158,0,0,0-1.774.948c-.625-.2-.887.222-1.21.625l-.282.06a2.1,2.1,0,0,0,.04-.423H292.9c-.141,1.27-.383,2.56-.565,3.831l-.04.282h1.089c.181-1.169.282-1.935.343-2.44l.4-.222c.06-.222.242-.3.625-.3a4.617,4.617,0,0,0-.081.847c0,1.351.726,2.177,1.9,2.177a3.385,3.385,0,0,0,.948-.141l.181-1.149a2.117,2.117,0,0,1-.927.262c-.625,0-1.008-.464-1.008-1.23,0-1.109.565-1.9,1.371-1.9Z" transform="translate(-275.344 -633.979)"/><path class="c" d="M341.621,643l-.242,1.472a1.358,1.358,0,0,0-1.028-.665,1.876,1.876,0,0,0-1.371,1.028,8.8,8.8,0,0,1-.927-.262h0a6.008,6.008,0,0,0,.04-.625H337.1c-.141,1.27-.383,2.56-.565,3.831l-.04.282h1.089c.141-.948.262-1.734.343-2.359s.565-.625.927-.6a3.528,3.528,0,0,0-.262,1.331c0,1.028.524,1.714,1.31,1.714a1.27,1.27,0,0,0,1.008-.464l-.06.383h1.028l.827-5.06Zm-1.351,4.113c-.363,0-.565-.282-.565-.806s.343-1.391.847-1.391.565.282.565.807-.363,1.391-.867,1.391Z" transform="translate(-310.633 -635.097)"/><path class="d" d="M217.255,646.56h-1.089l.625-3.891L215.4,646.56h-.746l-.081-3.871-.645,3.871H212.9l.847-5.06h1.573l.04,3.125,1.048-3.125h1.673l-.827,5.06Z" transform="translate(-211.952 -633.899)"/><path class="d" d="M238.838,648.079H238.6c-.6,0-.927.2-.927.625a.383.383,0,0,0,.383.423c.444,0,.766-.423.786-1.028Zm.786,1.835h-.907v-.423a1.351,1.351,0,0,1-1.129.5,1.017,1.017,0,0,1-.988-1.129c0-1.008.706-1.593,1.9-1.593l.444.04a1.009,1.009,0,0,0,.04-.262c0-.262-.181-.383-.685-.383a3.608,3.608,0,0,0-1.149.181l.141-.927a4.314,4.314,0,0,1,1.29-.222c.927,0,1.431.423,1.411,1.21a5.263,5.263,0,0,1-.081.806c-.1.6-.3,1.875-.323,2.177Z" transform="translate(-230.874 -637.252)"/><path class="d" d="M309.309,641.082l-.181,1.089a2.056,2.056,0,0,0-.968-.282c-.806,0-1.371.786-1.371,1.9,0,.766.383,1.23,1.008,1.23a2.1,2.1,0,0,0,.927-.262l-.181,1.149a3.39,3.39,0,0,1-.948.141c-1.169,0-1.9-.847-1.9-2.177,0-1.815,1.008-3.065,2.44-3.065a3.75,3.75,0,0,1,1.19.262Z" transform="translate(-286.043 -633.34)"/><path class="d" d="M323.438,648.079H323.2c-.6,0-.927.2-.927.625a.383.383,0,0,0,.383.423c.444,0,.766-.423.786-1.028Zm.786,1.835h-.907v-.423a1.351,1.351,0,0,1-1.129.5,1.017,1.017,0,0,1-.988-1.129c0-1.008.706-1.593,1.9-1.593l.444.04a1.007,1.007,0,0,0,.04-.262c0-.262-.181-.383-.685-.383a3.608,3.608,0,0,0-1.149.181l.141-.927a4.314,4.314,0,0,1,1.29-.222c.927,0,1.431.423,1.411,1.21a5.181,5.181,0,0,1-.081.806c-.1.6-.3,1.875-.323,2.177Z" transform="translate(-298.418 -637.252)"/><path class="d" d="M269.033,647.857a2.479,2.479,0,0,1-.786.141.793.793,0,0,1-.847-.907,9.56,9.56,0,0,1,.141-1.089l.464-2.8h1.069l-.121.625h.544l-.141.988h-.544c-.121.786-.3,1.754-.3,1.9a.327.327,0,0,0,.363.3l.282-.04-.141.907Z" transform="translate(-255.465 -635.256)"/><path class="d" d="M280.144,649.813a3.689,3.689,0,0,1-1.109.161,1.632,1.632,0,0,1-1.835-1.835c0-1.21.806-2.44,1.875-2.44s1.452.585,1.452,1.492a4.457,4.457,0,0,1-.141,1.008h-2.117c-.081.6.3.847.927.847a2.539,2.539,0,0,0,1.129-.262Zm-.6-2.44c0-.081.121-.726-.5-.726s-.585.262-.685.726Z" transform="translate(-263.289 -637.252)"/><path class="d" d="M253.2,647.091a1.2,1.2,0,0,0,.827,1.149c.565.262.5.262.5.464s-.2.363-.625.363a3.063,3.063,0,0,1-.968-.161l-.141.948a5.042,5.042,0,0,0,1.129.121c1.149,0,1.673-.444,1.673-1.371a1.14,1.14,0,0,0-.766-1.149c-.544-.262-.5-.262-.5-.444s.181-.343.524-.343l.786.06.161-.948a7.408,7.408,0,0,0-.948-.081c-1.21,0-1.633.625-1.633,1.391Z" transform="translate(-243.808 -637.252)"/><path class="d" d="M351.586,646.56h-1.028l.06-.383a1.27,1.27,0,0,1-1.008.464c-.786,0-1.31-.685-1.31-1.714,0-1.371.806-2.52,1.754-2.52a1.23,1.23,0,0,1,1.028.565l.242-1.472h1.069l-.827,5.06Zm-1.593-.948c.5,0,.867-.565.867-1.391s-.2-.806-.565-.806-.847.564-.847,1.391.181.806.565.806Z" transform="translate(-320.054 -633.899)"/><path class="d" d="M338.7,646.035c-.141,1.27-.383,2.56-.565,3.831l-.04.282h1.089c.383-2.52.484-3,1.089-2.944a4.012,4.012,0,0,1,.4-1.19c-.464-.1-.706.161-1.048.645a3.751,3.751,0,0,0,.06-.625Z" transform="translate(-311.91 -637.487)"/><path class="d" d="M294.4,646.035c-.141,1.27-.383,2.56-.565,3.831l-.04.282h1.089c.383-2.52.484-3,1.089-2.944a4.071,4.071,0,0,1,.4-1.19c-.444-.1-.706.161-1.028.645a3.732,3.732,0,0,0,.06-.625Z" transform="translate(-276.542 -637.487)"/><path class="d" d="M367,663.723a.323.323,0,1,1,.323.323A.323.323,0,0,1,367,663.723Zm.323.242a.242.242,0,1,0-.242-.242A.242.242,0,0,0,367.323,663.965Zm-.04-.1h-.06v-.282h.2a.1.1,0,0,1,0,.161l.06.121H367.4l-.04-.121h-.04v.121Zm0-.161h.081v-.04h-.1v.081Z" transform="translate(-334.984 -651.384)"/></svg>