<svg xmlns="http://www.w3.org/2000/svg" width="20" height="20" viewBox="0 0 20 20"><defs><style>.a{fill:#a7acb2;opacity:0.8;}.a,.b{fill-rule:evenodd;}.b{fill:#fff;}</style></defs><path class="a" d="M150.889-23.111a10,10,0,0,0-10,10,10,10,0,0,0,10,10,10,10,0,0,0,10-10,10,10,0,0,0-10-10Z" transform="translate(-140.889 23.111)"/><path class="b" d="M155.889-9.524l-1.413,1.413L150.889-11.7,147.3-8.111l-1.413-1.413,3.588-3.588L145.889-16.7l1.413-1.413,3.587,3.588,3.587-3.588,1.413,1.413L152.3-13.111Z" transform="translate(-140.889 23.111)"/></svg>